<svg xmlns="http://www.w3.org/2000/svg" width="18" height="18" viewBox="0 0 18 18" fill="none"><path d="M0.5625 5.625L9 10.125L17.4375 5.625" stroke="#323D28" stroke-linecap="round" stroke-linejoin="round"></path><path d="M15.75 16.3125H2.25C1.80245 16.3125 1.37322 16.1347 1.05676 15.8182C0.74029 15.5018 0.5625 15.0726 0.5625 14.625V3.375C0.5625 2.92745 0.74029 2.49822 1.05676 2.18176C1.37322 1.86529 1.80245 1.6875 2.25 1.6875H15.75C16.1976 1.6875 16.6268 1.86529 16.9432 2.18176C17.2597 2.49822 17.4375 2.92745 17.4375 3.375V14.625C17.4375 15.0726 17.2597 15.5018 16.9432 15.8182C16.6268 16.1347 16.1976 16.3125 15.75 16.3125Z" stroke="#323D28" stroke-linecap="round" stroke-linejoin="round"></path></svg>