<svg xmlns="http://www.w3.org/2000/svg" width="18" height="18" viewBox="0 0 18 18" fill="none"><g clip-path="url(#clip0_2236_1448)"><path d="M11.6401 10.8526L10.3564 12.4557C8.3687 11.2876 6.71198 9.63144 5.54314 7.6441L7.14767 6.36047C7.3357 6.20991 7.46859 6.00132 7.52558 5.76726C7.58256 5.53321 7.56044 5.28688 7.46267 5.06672L6.00017 1.77329C5.89529 1.53702 5.70992 1.34568 5.47708 1.23338C5.24425 1.12109 4.9791 1.09514 4.72892 1.16016L1.94454 1.88241C1.68479 1.95031 1.45897 2.11111 1.30984 2.33436C1.16071 2.55761 1.09864 2.82781 1.13539 3.09376C1.624 6.57319 3.23209 9.79896 5.71656 12.2834C8.20103 14.7679 11.4268 16.376 14.9062 16.8646C15.1722 16.9013 15.4424 16.8393 15.6656 16.6901C15.8889 16.541 16.0497 16.3152 16.1176 16.0554L16.8398 13.2711C16.9047 13.0209 16.8787 12.7559 16.7665 12.5231C16.6543 12.2903 16.4631 12.1049 16.227 11.9998L12.9338 10.5373C12.7137 10.4394 12.4673 10.4173 12.2332 10.4743C11.9991 10.5314 11.7905 10.6644 11.6401 10.8526Z" stroke="#323D28" stroke-linecap="round" stroke-linejoin="round"></path></g><defs><clipPath id="clip0_2236_1448"><rect width="18" height="18" fill="white"></rect></clipPath></defs></svg>