<svg xmlns="http://www.w3.org/2000/svg" width="18" height="18" viewBox="0 0 18 18" fill="none"><path d="M15.1875 6.75C15.1875 11.8125 9 17.4375 9 17.4375C9 17.4375 2.8125 11.8125 2.8125 6.75C2.8125 5.10897 3.4644 3.53516 4.62478 2.37478C5.78516 1.2144 7.35897 0.5625 9 0.5625C10.641 0.5625 12.2148 1.2144 13.3752 2.37478C14.5356 3.53516 15.1875 5.10897 15.1875 6.75Z" stroke="#323D28" stroke-linecap="round" stroke-linejoin="round"></path><path d="M9 9.5625C10.5533 9.5625 11.8125 8.3033 11.8125 6.75C11.8125 5.1967 10.5533 3.9375 9 3.9375C7.4467 3.9375 6.1875 5.1967 6.1875 6.75C6.1875 8.3033 7.4467 9.5625 9 9.5625Z" stroke="#323D28" stroke-linecap="round" stroke-linejoin="round"></path></svg>